<?xml version="1.0" encoding="utf-8"?>
<!-- Generator: Adobe Illustrator 24.0.0, SVG Export Plug-In . SVG Version: 6.00 Build 0)  -->
<svg version="1.1" id="Слой_1" xmlns="http://www.w3.org/2000/svg" xmlns:xlink="http://www.w3.org/1999/xlink" x="0px" y="0px"
	 viewBox="0 0 24 24" style="enable-background:new 0 0 24 24;" xml:space="preserve">
<style type="text/css">
	.st0{fill:#FCFCFC;}
	.st1{fill:#FEFEFE;}
	.st2{fill:#7F7F7F;}
	.st3{fill:#E3E3E3;}
	.st4{fill:#CFCFCF;}
	.st5{fill:#040404;}
	.st6{fill:#D1D1D1;}
</style>
<path d="M1.01,4.69c0-0.03,0-0.05,0-0.08c0.13-1.03,0.58-1.9,1.36-2.58C3.07,1.41,3.86,1,4.83,1.05c4.98,0,9.96,0,14.93,0
	c2-0.08,3.77,2.08,3.75,3.76c-0.03,4.98-0.01,9.95-0.01,14.93c0,1.9-1.86,3.77-3.76,3.77c-4.96,0-9.93,0-14.89,0
	c-1.8,0-3.53-1.51-3.78-3.29c-0.01-0.1,0-0.21-0.07-0.31c0-0.03,0-0.05,0-0.08c0.07-0.12,0.04-0.26,0.04-0.39c0-4.78,0-9.57,0-14.35
	C1.04,4.95,1.08,4.81,1.01,4.69z"/>
<path class="st0" d="M1.01,19.9c0.15,0.07,0.11,0.23,0.14,0.35c0.47,1.93,2.11,3.22,4.1,3.22c4.67,0,9.34,0,14.01,0
	c2.38,0,4.21-1.83,4.21-4.2c0-4.71,0-9.42,0-14.13c0-2.05-1.62-3.85-3.64-4.06c-0.03-0.01-0.04-0.03-0.03-0.05
	c0.01-0.02,0.02-0.03,0.03-0.03c1.17,0,2.35,0.01,3.52-0.01c0.2,0,0.25,0.05,0.25,0.25c-0.01,7.37-0.01,14.73,0,22.1
	c0,0.2-0.05,0.25-0.25,0.25c-7.37-0.01-14.73-0.01-22.1,0c-0.2,0-0.25-0.04-0.25-0.25C1.01,22.2,1.01,21.05,1.01,19.9z"/>
<path class="st1" d="M4.68,1.08C3.02,1.26,1.57,2.54,1.16,4.18C1.12,4.33,1.15,4.5,1.01,4.61c0-1.13,0-2.27-0.01-3.4
	C1,1.03,1.03,1,1.21,1c1.16,0.01,2.32,0.01,3.48,0.01c0.03,0.02,0.04,0.04,0.02,0.05C4.7,1.07,4.69,1.08,4.68,1.08z"/>
<path class="st2" d="M4.68,1.08c0.01-0.02,0.01-0.05,0.01-0.07c5.04,0,10.09,0,15.13,0c-0.01,0.03-0.01,0.05,0.01,0.07
	c-4.76,0-9.51,0.01-14.27,0.01C5.27,1.09,4.97,1.08,4.68,1.08z"/>
<path class="st2" d="M1.01,4.69C1.16,4.76,1.08,4.9,1.08,5c0,4.82,0,9.64,0,14.46c0,0.12,0.08,0.27-0.08,0.36
	C1.01,14.78,1.01,9.73,1.01,4.69z"/>
<path class="st1" d="M11.33,6.16c-0.4,0.31-0.58,0.78-0.86,1.17c-0.12,0.17,0.09,0.19,0.17,0.23c0.75,0.38,1.49,0.76,2.24,1.13
	c0.22,0.1,0.35,0.18,0.21,0.46c-0.15,0.29-0.05,0.59,0.17,0.81c0.19,0.19,0.15,0.32,0.02,0.51c-0.38,0.57-0.8,1.1-1.41,1.45
	c-0.45,0.26-0.61,0.21-0.86-0.23c-0.12-0.2-0.28-0.36-0.51-0.43c-0.22-0.06-0.3-0.18-0.28-0.4c0.02-0.2,0.01-0.4,0-0.6
	c0-0.07,0.02-0.2-0.08-0.19C9.77,10.1,9.87,9.81,9.86,9.64C9.73,7.18,9.61,4.72,9.48,2.26C9.46,2,9.53,1.92,9.8,1.92
	c3.08,0.01,6.16-0.01,9.25,0.01c1.82,0.01,3.11,1.01,3.46,2.65c0.07,0.32,0.08,0.66,0.08,0.99c0,4.46,0.01,8.91,0,13.37
	c0,1.88-0.97,3.18-2.63,3.56c-0.34,0.08-0.69,0.08-1.03,0.08c-2.67,0-5.34,0-8,0.01c-0.3,0-0.42-0.06-0.42-0.38
	c-0.02-0.68-0.07-1.36-0.11-2.03c-0.01-0.16,0.02-0.27,0.18-0.35c0.35-0.18,0.7-0.38,1.05-0.58c0.5,1.33,1.66,1.17,2.82,1.25
	c-0.49-0.77-0.85-1.52-1.83-1.79c0.17-0.1,0.28-0.18,0.39-0.24c2.01-1.12,4.01-2.25,6.02-3.37c0.19-0.1,0.35-0.16,0.2-0.46
	c-0.16-0.32-0.3-0.22-0.52-0.12c-0.59,0.29-1.19,0.56-1.86,0.87c0.51-1.05-0.11-1.76-0.56-2.53c-0.75,0.88-0.77,2.07-0.04,2.82
	c-1.98,0.93-3.94,1.85-5.94,2.79c-0.06-1.34-0.16-2.61-0.16-3.89c0-0.39,0.09-0.8,0.08-1.2c0-0.16,0.1-0.2,0.21-0.24
	c0.26-0.09,0.47-0.24,0.59-0.5c0.04-0.08,0.08-0.15,0.21-0.14c0.67,0.04,1.16-0.34,1.61-0.76c0.36-0.34,0.67-0.73,0.91-1.16
	c0.08-0.14,0.17-0.2,0.35-0.18c0.39,0.06,0.75-0.04,1.01-0.35c0.13-0.15,0.22-0.13,0.37-0.05c0.63,0.32,1.26,0.63,1.88,0.96
	c0.19,0.1,0.28,0.1,0.33-0.13c0.03-0.16,0.09-0.31,0.14-0.46c0.24-0.74,0.24-0.74-0.41-1.12c-0.01-0.07,0.04-0.1,0.1-0.12
	c0.3,0.01,0.53,0.21,0.8,0.32c0.05,0.04,0.08,0.08,0.08,0.14c-0.11,0.25-0.23,0.51-0.3,0.78c-0.04,0.14-0.07,0.27,0.11,0.33
	c0.16,0.06,0.33,0.08,0.4-0.12c0.15-0.41,0.32-0.81,0.32-1.26c-0.02-0.05-0.03-0.11,0.01-0.16c0.22-0.21,0.54-0.22,0.79-0.4
	c-0.1-0.13-0.25-0.16-0.37-0.22c-2.27-1.1-4.48-2.31-6.75-3.41c-0.42-0.2-0.42-0.21-0.67,0.17c-0.18,0.27-0.36,0.53-0.52,0.81
	C11.39,6.12,11.36,6.14,11.33,6.16z"/>
<path class="st1" d="M6.92,13.41c-0.87-0.24-1.7-0.48-2.53-0.71c-0.07-0.02-0.19,0.01-0.14-0.15c0.17-0.58,0.16-0.61-0.3-1.1
	c-0.23,0.32-0.44,0.63-0.17,1.09c-0.58-0.16-1.1-0.32-1.62-0.45c-0.18-0.04-0.24-0.12-0.23-0.3c0.02-2.31-0.06-4.62,0.05-6.92
	c0.07-1.42,1.39-2.74,2.82-2.88C5.64,1.88,6.5,1.95,7.35,1.92c0.27-0.01,0.23,0.16,0.22,0.31C7.51,3.22,7.46,4.2,7.4,5.18
	C7.24,7.91,7.08,10.64,6.92,13.41z"/>
<path class="st1" d="M6.62,18.72c-0.06,1.13-0.14,2.26-0.17,3.39c-0.01,0.41-0.15,0.51-0.54,0.48c-0.66-0.04-1.33,0-1.96-0.28
	c-1.38-0.64-2.02-1.75-2.02-3.25c0-1.83,0.01-3.65-0.01-5.48c0-0.3,0.08-0.31,0.33-0.22c1.43,0.54,2.86,1.06,4.3,1.58
	c0.23,0.08,0.28,0.19,0.27,0.43C6.74,16.48,6.68,17.6,6.62,18.72C6.62,18.72,6.62,18.72,6.62,18.72z"/>
<path class="st3" d="M11.33,6.16c0.01-0.04,0.01-0.08,0.02-0.12c0.14-0.07,0.26,0,0.37,0.06c1.44,0.8,2.94,1.48,4.4,2.24
	c0.14,0.07,0.3,0.12,0.36,0.29c-0.01,0.07-0.03,0.12-0.12,0.08C14.68,7.85,13.01,7.01,11.33,6.16z"/>
<path class="st4" d="M16.36,8.7c0.03-0.02,0.06-0.05,0.09-0.07c0.43,0.02,0.79,0.19,1.05,0.54c-0.03,0.02-0.06,0.05-0.08,0.07
	C17.06,9.08,16.7,8.91,16.36,8.7z"/>
<path d="M17.51,9.17c-0.33-0.22-0.69-0.38-1.05-0.54c-1.71-0.86-3.41-1.73-5.12-2.59c0.23-0.36,0.47-0.71,0.68-1.07
	c0.11-0.19,0.22-0.12,0.36-0.05c2.53,1.27,5.06,2.54,7.63,3.83c-0.38,0.16-0.72,0.31-1.06,0.45c-0.16,0.24-0.42,0.26-0.67,0.28
	C17.99,9.46,17.78,9.23,17.51,9.17z"/>
<path class="st5" d="M19.04,9.26c0.03,0.55-0.21,1.05-0.42,1.53c-0.09,0.2-0.41-0.02-0.62-0.06c-0.2-0.04-0.05-0.2-0.02-0.29
	c0.11-0.3,0.11-0.66,0.39-0.89C18.55,9.36,18.8,9.33,19.04,9.26z"/>
<path class="st6" d="M19.04,9.26c-0.21,0.14-0.44,0.21-0.67,0.29c-0.03-0.02-0.06-0.05-0.1-0.07c0.2-0.14,0.44-0.21,0.67-0.28
	C18.98,9.22,19.01,9.24,19.04,9.26z"/>
</svg>
